# xmcd CD database file
#
# Track frame offsets:
#	150
#	28720
#	50095
#	69480
#	96375
#	121932
#	144830
#	163107
#	183280
#	191482
#	215405
#	246342
#	267467
#	273747
#
# Disc length: 3721 seconds
#
# Revision: 0
# Processed by: cddbd v1.5.1PL0 Copyright (c) Steve Scherf et al.
# Submitted via: CDex 1.51
#
DISCID=d70e870e
DTITLE=Narada Michael Walden - Sending Love To Everyone
DYEAR=1995
DGENRE=Dance
TTITLE0=Sending Love To Everyone
TTITLE1=Tell Me What It's All About
TTITLE2=Soul Desire
TTITLE3=Best Years of Our Lives
TTITLE4=My Desire Is You
TTITLE5=Lay Back
TTITLE6=Party House
TTITLE7=Flower Child
TTITLE8=Flower Children's Parade
TTITLE9=Hand In Hand
TTITLE10=Still Strong
TTITLE11=Angels, Moon&Stars
TTITLE12=Invocation
TTITLE13=Flower Children's Parade(slight return)
EXTD=YEAR: 1995
EXTT0=
EXTT1=
EXTT2=
EXTT3=
EXTT4=
EXTT5=
EXTT6=
EXTT7=
EXTT8=
EXTT9=
EXTT10=
EXTT11=
EXTT12=
EXTT13=
PLAYORDER=
